<svg width="760" height="360" viewBox="0 0 760 360" fill="none" xmlns="http://www.w3.org/2000/svg">
  <rect width="760" height="360" rx="24" fill="#202124"/>
  <rect x="24" y="24" width="712" height="312" rx="18" fill="#242528" stroke="#3c4043"/>
  <circle cx="58" cy="58" r="18" fill="#F1F3F4"/>
  <path d="M58 43a15 15 0 1 0 0 30 15 15 0 0 0 0-30Zm0 5.5a9.5 9.5 0 0 1 8.6 5.5H58a4 4 0 0 0-3.5 2L50.1 48.7a9.3 9.3 0 0 1 7.9-4.2Zm0 19a9.5 9.5 0 0 1-8.6-5.5H58a4 4 0 0 0 3.5-2l4.4 7.3a9.3 9.3 0 0 1-7.9 4.2Z" fill="#202124"/>
  <text x="88" y="67" fill="#F1F3F4" font-family="Arial, sans-serif" font-size="26" font-weight="700">Extensions</text>
  <rect x="40" y="102" width="164" height="54" rx="27" fill="#26374A" stroke="#3EA6FF" stroke-width="2"/>
  <text x="71" y="136" fill="#D2E3FC" font-family="Arial, sans-serif" font-size="16" font-weight="700">Load unpacked</text>
  <rect x="224" y="102" width="160" height="54" rx="27" fill="#202124" stroke="#3EA6FF" stroke-width="2"/>
  <text x="259" y="136" fill="#D2E3FC" font-family="Arial, sans-serif" font-size="16" font-weight="700">Pack extension</text>
  <rect x="604" y="42" width="112" height="36" rx="18" fill="#1A73E8"/>
  <circle cx="698" cy="60" r="14" fill="#8AB4F8"/>
  <text x="470" y="66" fill="#F1F3F4" font-family="Arial, sans-serif" font-size="17">Developer mode</text>
  <path d="M616 60h62" stroke="#8AB4F8" stroke-width="4" stroke-linecap="round"/>
  <path d="M696 54l8 6-8 6" stroke="#174EA6" stroke-width="3" stroke-linecap="round" stroke-linejoin="round"/>
  <rect x="40" y="184" width="260" height="56" rx="28" fill="#8AB4F8"/>
  <text x="86" y="219" fill="#0B1F33" font-family="Arial, sans-serif" font-size="18" font-weight="700">My extensions</text>
  <rect x="40" y="262" width="260" height="26" rx="8" fill="#3C4043"/>
  <rect x="40" y="300" width="210" height="20" rx="8" fill="#3C4043"/>
  <path d="M618 92c-8 52-24 86-64 126" stroke="#F87171" stroke-width="6" stroke-linecap="round" stroke-dasharray="12 12"/>
  <path d="M546 224l11-42 31 30-42 12Z" fill="#F87171"/>
  <rect x="414" y="238" width="284" height="70" rx="16" fill="#FFF7ED" stroke="#FED7AA" stroke-width="2"/>
  <text x="438" y="267" fill="#9A3412" font-family="Arial, sans-serif" font-size="17" font-weight="700">Bước 2</text>
  <text x="438" y="292" fill="#9A3412" font-family="Arial, sans-serif" font-size="16">Bật Developer mode ở góc phải</text>
</svg>
